<svg width="39" height="39" viewBox="0 0 39 39" fill="none" xmlns="http://www.w3.org/2000/svg">
<path d="M30.264 20.681C29.9325 19.8924 29.5559 18.9991 29.1878 17.8961C28.225 15.0089 31.3012 11.8597 31.3304 11.8304L29.6071 10.1071C29.4365 10.2777 25.4353 14.3459 26.8747 18.6664C27.272 19.8583 27.6693 20.7992 28.0178 21.6279C28.8304 23.2352 29.2525 25.0115 29.25 26.8125C29.1072 28.2643 28.5498 29.6443 27.6444 30.7881C26.7389 31.9319 25.5237 32.7911 24.1434 33.2633C24.5795 31.5543 24.573 29.7623 24.1245 28.0564C23.6761 26.3506 22.8005 24.7871 21.5804 23.5133L20.308 22.241L19.5987 23.8948C17.3611 29.1159 14.6981 31.395 13.132 32.3456C12.1704 31.7571 11.3622 30.9486 10.7742 29.9866C10.1863 29.0246 9.8352 27.9367 9.75 26.8125C9.83331 25.2782 10.218 23.7753 10.8822 22.3897C11.6701 20.7194 12.114 18.9078 12.1875 17.0625V14.8956C13.2527 15.3343 14.625 16.4836 14.625 19.5V22.6736L16.7493 20.3153C20.542 16.1058 19.7511 11.0931 18.2191 7.75247C19.3836 8.14064 20.3836 8.90939 21.0581 9.93496C21.7326 10.9605 22.0424 12.1832 21.9375 13.4062H24.375C24.375 6.65803 18.7943 4.875 15.8438 4.875H13.4062L14.8687 6.82378C15.0357 7.04925 18.3568 11.6098 16.5177 16.1935C16.1089 15.0414 15.359 14.041 14.3678 13.3254C13.3766 12.6098 12.191 12.2129 10.9688 12.1875H9.75V17.0625C9.66669 18.5968 9.28196 20.0997 8.61778 21.4853C7.82992 23.1556 7.38602 24.9672 7.3125 26.8125C7.3125 31.5023 11.9718 36.5625 19.5 36.5625C27.0282 36.5625 31.6875 31.5023 31.6875 26.8125C31.6883 24.6867 31.2013 22.589 30.264 20.681ZM15.6427 33.5473C17.8908 31.6863 19.7069 29.3582 20.9649 26.7247C21.6371 27.8089 22.019 29.0479 22.0738 30.3223C22.1287 31.5968 21.8547 32.864 21.2782 34.0019C20.6888 34.0823 20.0948 34.1235 19.5 34.125C18.192 34.1346 16.8905 33.9397 15.6427 33.5473Z" fill="black"/>
</svg>
