<svg width="24" height="24" viewBox="0 0 27 27" fill="none" xmlns="http://www.w3.org/2000/svg">
    <path d="M13.5 0C16.17 0 18.7801 0.791761 21.0002 2.27516C23.2203 3.75856 24.9506 5.86697 25.9724 8.33377C26.9942 10.8006 27.2615 13.515 26.7406 16.1337C26.2197 18.7525 24.934 21.1579 23.0459 23.0459C21.1579 24.934 18.7525 26.2197 16.1337 26.7406C13.515 27.2615 10.8006 26.9942 8.33377 25.9724C5.86697 24.9506 3.75856 23.2203 2.27516 21.0002C0.791761 18.7801 0 16.17 0 13.5C0 13.2762 0.0888949 13.0616 0.247129 12.9034C0.405363 12.7451 0.619974 12.6563 0.84375 12.6563C1.06753 12.6563 1.28214 12.7451 1.44037 12.9034C1.59861 13.0616 1.6875 13.2762 1.6875 13.5C1.6875 15.8363 2.38029 18.1201 3.67827 20.0627C4.97624 22.0052 6.8211 23.5193 8.97955 24.4133C11.138 25.3074 13.5131 25.5413 15.8045 25.0855C18.0959 24.6297 20.2007 23.5047 21.8527 21.8527C23.5047 20.2007 24.6297 18.0959 25.0855 15.8045C25.5413 13.5131 25.3074 11.138 24.4133 8.97955C23.5193 6.8211 22.0052 4.97624 20.0627 3.67827C18.1201 2.38029 15.8363 1.6875 13.5 1.6875C10.5435 1.6875 8.01563 2.77425 5.99063 4.79588L8.19113 6.99638C8.30079 7.10561 8.3783 7.2429 8.41516 7.39323C8.45202 7.54356 8.44682 7.70114 8.40013 7.84871C8.35343 7.99628 8.26705 8.12817 8.15042 8.22993C8.03379 8.3317 7.89141 8.39942 7.73888 8.42569L7.59375 8.4375H2.53125C2.33377 8.43757 2.14252 8.36836 1.99081 8.24194C1.8391 8.11551 1.73655 7.93988 1.701 7.74563L1.6875 7.59375V2.53125C1.68711 2.3765 1.72928 2.22462 1.8094 2.09223C1.88953 1.95984 2.00452 1.85203 2.1418 1.7806C2.27908 1.70917 2.43336 1.67688 2.58777 1.68724C2.74217 1.69761 2.89075 1.75024 3.01725 1.83938L3.12863 1.93388L4.79588 3.6045C7.12463 1.27406 10.0744 0 13.5 0ZM12.6563 7.59375C12.8537 7.59368 13.045 7.66289 13.1967 7.78931C13.3484 7.91574 13.451 8.09137 13.4865 8.28563L13.5 8.4375V14.1058L18.2453 17.9027C18.3997 18.0261 18.5059 18.1997 18.5454 18.3934C18.5849 18.5871 18.5551 18.7885 18.4613 18.9624L18.3769 19.089C18.2536 19.243 18.0802 19.349 17.8869 19.3884C17.6936 19.4279 17.4926 19.3984 17.3188 19.305L17.1923 19.2206L12.1298 15.1706C11.9708 15.044 11.863 14.8642 11.826 14.6644L11.8125 14.5125V8.4375C11.8125 8.21372 11.9014 7.99911 12.0596 7.84088C12.2179 7.68265 12.4325 7.59375 12.6563 7.59375Z"/>
</svg>
