<svg width="29" height="29" viewBox="0 0 29 29" fill="none" xmlns="http://www.w3.org/2000/svg">
<path d="M8.4668 14.5C8.4668 14.2597 8.56228 14.0291 8.73223 13.8592C8.90219 13.6892 9.13269 13.5938 9.37305 13.5938H13.5938V9.37305C13.5938 9.13269 13.6892 8.90219 13.8592 8.73223C14.0291 8.56228 14.2597 8.4668 14.5 8.4668C14.7404 8.4668 14.9709 8.56228 15.1408 8.73223C15.3108 8.90219 15.4063 9.13269 15.4063 9.37305V13.5938H19.627C19.8673 13.5938 20.0978 13.6892 20.2678 13.8592C20.4377 14.0291 20.5332 14.2597 20.5332 14.5C20.5332 14.7404 20.4377 14.9709 20.2678 15.1408C20.0978 15.3108 19.8673 15.4063 19.627 15.4063H15.4063V19.627C15.4063 19.8673 15.3108 20.0978 15.1408 20.2678C14.9709 20.4377 14.7404 20.5332 14.5 20.5332C14.2597 20.5332 14.0291 20.4377 13.8592 20.2678C13.6892 20.0978 13.5938 19.8673 13.5938 19.627V15.4063H9.37305C9.13269 15.4063 8.90219 15.3108 8.73223 15.1408C8.56228 14.9709 8.4668 14.7404 8.4668 14.5Z" fill="white"/>
<path fill-rule="evenodd" clip-rule="evenodd" d="M8.84134 4.55421C12.6022 4.13726 16.3977 4.13726 20.1586 4.55421C22.3662 4.80071 24.1485 6.5395 24.4071 8.75921C24.8542 12.5739 24.8542 16.4273 24.4071 20.242C24.1473 22.4617 22.365 24.1993 20.1586 24.447C16.3977 24.8639 12.6022 24.8639 8.84134 24.447C6.63372 24.1993 4.85143 22.4617 4.59284 20.242C4.14776 16.4273 4.14776 12.5739 4.59284 8.75921C4.85143 6.5395 6.63493 4.80071 8.84134 4.55421ZM19.958 6.35463C16.3304 5.95252 12.6695 5.95252 9.04193 6.35463C8.37039 6.42913 7.74357 6.72785 7.26275 7.20253C6.78193 7.67722 6.47518 8.30014 6.39205 8.97067C5.96228 12.6452 5.96228 16.3572 6.39205 20.0318C6.47543 20.7021 6.78229 21.3247 7.26309 21.7991C7.74389 22.2736 8.37057 22.5721 9.04193 22.6466C12.6391 23.0478 16.3608 23.0478 19.958 22.6466C20.6292 22.5719 21.2556 22.2732 21.7361 21.7988C22.2167 21.3244 22.5234 20.7019 22.6067 20.0318C23.0364 16.3572 23.0364 12.6452 22.6067 8.97067C22.5231 8.30076 22.2163 7.67853 21.7358 7.20435C21.2552 6.73017 20.629 6.43169 19.958 6.35704" fill="white"/>
</svg>
