<svg width="59" height="59" viewBox="0 0 59 59" fill="none" xmlns="http://www.w3.org/2000/svg">
<path d="M30.1146 47.3967V51.2415C30.1146 51.4972 29.9769 51.6127 29.7212 51.6127L29.2787 51.625C29.0083 51.625 28.8805 51.5095 28.8707 51.2513V47.3278C28.8682 47.3117 28.8627 47.2963 28.8542 47.2823C28.8458 47.2684 28.8347 47.2563 28.8215 47.2467C28.8027 47.2207 28.7745 47.203 28.7428 47.1975C27.4719 47.082 26.459 46.7673 25.0504 46.3248C17.9458 44.1 13.0783 38.5098 12.1442 31.4519C11.1559 24.0327 16.7216 18.467 21.7882 13.7519C22.2799 13.2848 22.6388 12.7489 23.0469 12.2351C23.0469 12.2105 23.0592 12.2105 23.0813 12.2007H23.1157C23.1403 12.2007 23.1526 12.2007 23.1649 12.2253L23.1747 12.2597C23.5705 13.9707 23.6049 15.2048 25.2004 16.5569C26.5057 17.6508 29.9892 20.4582 27.8922 22.2405C27.7284 22.3829 27.5332 22.4845 27.3225 22.5371C27.1119 22.5896 26.8918 22.5916 26.6803 22.5429C25.234 22.2185 23.9416 21.4106 23.0164 20.2526C22.0912 19.0945 21.5886 17.6556 21.5915 16.1734C21.5732 16.1502 21.5484 16.1331 21.5202 16.1242C21.4967 16.1162 21.4715 16.1142 21.447 16.1185C21.4225 16.1228 21.3995 16.1332 21.3801 16.1488C17.3067 19.8068 13.8232 23.836 13.5085 29.4262C13.1127 36.5554 18.9119 42.7627 25.6552 45.2653C26.5647 45.6144 27.612 45.7668 28.6027 46.0102C28.6361 46.0185 28.6708 46.0197 28.7047 46.0138C28.7386 46.0079 28.7708 45.9949 28.7994 45.9757C28.847 45.9344 28.8769 45.8763 28.8829 45.8135V17.791C28.8829 17.7649 28.8777 17.739 28.8675 17.715C28.8574 17.6909 28.8426 17.6691 28.8239 17.6508C28.218 17.0936 27.6357 16.5113 27.0785 15.9054C24.8636 13.3315 27.1695 9.56783 29.0919 7.54217C29.1462 7.48431 29.2137 7.44045 29.2886 7.41433C29.3958 7.37411 29.5123 7.36595 29.6241 7.39083C29.7358 7.41571 29.8379 7.47256 29.9179 7.55446C31.7002 9.58012 33.2145 11.9106 32.5631 14.659C32.3295 15.6473 31.2823 16.6503 30.4661 17.314C30.3576 17.4056 30.2702 17.5196 30.2099 17.6482C30.1497 17.7768 30.118 17.9169 30.117 18.0589V45.7668C30.117 45.8012 30.117 45.8356 30.1416 45.8725L30.2203 45.9536C30.2531 45.9782 30.2883 45.9954 30.326 46.0052C30.3636 46.0161 30.4032 46.0177 30.4415 46.0102C31.3757 45.8135 32.3418 45.639 33.2367 45.312C40.0167 42.8094 45.8971 36.5652 45.5037 29.3795C45.1989 23.9417 41.6343 19.5855 37.4896 16.1045C37.4765 16.0984 37.4622 16.0952 37.4478 16.0952C37.4333 16.0952 37.4191 16.0984 37.406 16.1045C37.3927 16.1085 37.3807 16.1162 37.3716 16.1267L37.347 16.1734C37.3534 17.4311 37.0023 18.6647 36.3347 19.7306C35.667 20.7965 34.7103 21.6507 33.5759 22.1938C31.4322 23.3345 29.6745 21.8103 30.8029 19.7355C31.7125 18.0466 33.4579 17.0559 34.4142 15.962C35.4393 14.7869 35.5082 13.6437 35.754 12.2941C35.7655 12.2122 35.7999 12.2007 35.8572 12.2597C36.8373 13.3512 38.2435 14.7639 40.0757 16.4979C44.2795 20.4582 47.8662 26.2476 46.7722 32.069C45.1989 40.4322 38.967 45.7545 30.2572 47.2467C30.1736 47.2565 30.1269 47.3155 30.117 47.3967" fill="#1E3B8A"/>
<path d="M38.2344 20.8885C38.6179 24.8267 36.9979 28.996 32.3516 29.4853C31.7649 29.5443 31.3069 29.459 30.9774 29.2296C29.6376 28.32 30.9086 26.3976 31.9804 25.724C34.2175 24.2785 36.5554 23.0198 38.1287 20.8663C38.1877 20.7877 38.223 20.7959 38.2344 20.8909M26.9359 29.4877C22.0439 29.1386 20.4951 24.8857 20.7164 20.8688C20.7164 20.7533 20.7655 20.7533 20.8344 20.8442C22.4175 23.0346 25.1192 24.458 27.4374 26.0633C28.37 26.7123 28.7191 27.5464 28.4847 28.5658C28.3126 29.2886 27.6931 29.5344 26.9359 29.4877ZM26.9114 36.7791C21.8128 36.0318 20.5762 32.3861 20.7164 28.0668C20.7164 27.8718 20.7745 27.8554 20.8909 28.0176C22.3364 30.2793 24.571 31.2798 26.8794 32.9097C27.589 33.403 28.043 33.807 28.2413 34.1217C28.8706 35.1001 28.6494 37.0348 26.9138 36.7767M38.2467 28.17C38.6327 32.3148 36.9315 36.3686 32.005 36.7521C30.6431 36.8701 30.0826 35.4959 30.6308 34.5273C31.061 33.748 31.6805 33.1187 32.4598 32.6295C34.3109 31.4986 37.0716 30.0089 38.0279 28.1332C38.1459 27.8873 38.223 27.8988 38.259 28.1676L38.2467 28.17ZM27.6366 43.6256C22.3511 43.7632 20.4041 39.4317 20.7655 35.1222C20.7786 34.9731 20.8253 34.9567 20.9056 35.073C22.4667 37.1725 24.5169 38.2664 26.6336 39.6529C27.4989 40.2355 28.5339 41.0394 28.6051 42.0621C28.6396 42.6349 28.4085 43.1118 27.9168 43.5199C27.8401 43.5811 27.7467 43.6179 27.6489 43.6256H27.6366ZM36.4423 41.6687C35.8114 42.3715 35.0204 42.9118 34.1362 43.2439C33.2521 43.576 32.301 43.69 31.3634 43.5764C31.1627 43.5471 30.9802 43.4436 30.8521 43.2863C29.6745 41.7253 31.1667 40.4912 32.5188 39.5841C34.4388 38.3008 36.8504 37.02 38.1091 35.0853L38.1435 35.0509C38.1561 35.0487 38.1691 35.0498 38.1812 35.0541C38.1932 35.0584 38.204 35.0658 38.2123 35.0755L38.2369 35.1099C38.468 37.3126 37.9788 40.002 36.4423 41.6687Z" fill="#1E3B8A"/>
</svg>
