<svg width="33" height="33" viewBox="0 0 33 33" fill="none" xmlns="http://www.w3.org/2000/svg">
  <path fill="currentColor" fill-rule="evenodd" clip-rule="evenodd" d="M25.5557 14.3825L24.2797 12.7902C23.9222 12.3502 23.991 11.6902 24.4447 11.3465C24.8985 10.989 25.5447 11.0577 25.8885 11.5115L28.6385 14.949C28.996 15.389 28.9272 16.049 28.4735 16.3927L25.036 19.1427C24.8435 19.294 24.6235 19.3627 24.3897 19.3627L24.4035 19.349C24.101 19.349 23.7985 19.2115 23.5922 18.964C23.2347 18.524 23.3035 17.864 23.7572 17.5202L25.1322 16.4202C21.5339 15.8977 13.6867 13.871 5.79975 5.98398C5.60829 5.78974 5.50097 5.52796 5.50097 5.25523C5.50097 4.9825 5.60829 4.72072 5.79975 4.52648C6.1985 4.12773 6.8585 4.12773 7.25725 4.52648C14.7785 12.0477 22.3465 13.9177 25.5557 14.3839M7.90625 31.0365C7.1775 31.0365 6.7375 31.0365 6.2975 30.8577C5.70625 30.6102 5.23875 30.1427 4.99125 29.5515C4.8125 29.1115 4.8125 28.6715 4.8125 27.9427V15.5677C4.8125 14.839 4.8125 14.399 4.99125 13.959C5.23875 13.3677 5.70625 12.9002 6.2975 12.6527C6.7375 12.474 7.1775 12.474 7.90625 12.474C8.635 12.474 9.075 12.474 9.515 12.6527C10.1062 12.9002 10.5737 13.3677 10.8212 13.959C11 14.399 11 14.839 11 15.5677V27.9427C11 28.6715 11 29.1115 10.8212 29.5515C10.5737 30.1427 10.1062 30.6102 9.515 30.8577C9.075 31.0365 8.635 31.0365 7.90625 31.0365ZM7.90625 14.5365C7.54875 14.5365 7.1775 14.5365 7.08125 14.564C6.99875 14.5915 6.94375 14.6602 6.9025 14.7427C6.875 14.8252 6.875 15.1965 6.875 15.5677V27.9427C6.875 28.3002 6.875 28.6715 6.9025 28.7677C6.93 28.8502 6.99875 28.919 7.08125 28.9465C7.26 29.0015 8.53875 29.0015 8.73125 28.9465C8.81375 28.919 8.86875 28.8502 8.91 28.7677C8.9375 28.6852 8.9375 28.314 8.9375 27.9427V15.5677C8.9375 15.2102 8.9375 14.839 8.91 14.7427C8.89571 14.7013 8.87219 14.6637 8.84123 14.6328C8.81026 14.6018 8.77265 14.5783 8.73125 14.564C8.64875 14.5365 8.2775 14.5365 7.90625 14.5365ZM17.5312 31.0365C16.8025 31.0365 16.3625 31.0365 15.9225 30.8577C15.3312 30.6102 14.8637 30.1427 14.6162 29.5515C14.4375 29.1115 14.4375 28.6715 14.4375 27.9427V20.3802C14.4375 19.6515 14.4375 19.2115 14.6162 18.7715C14.8637 18.1802 15.3312 17.7127 15.9225 17.4652C16.3625 17.2865 16.8025 17.2865 17.5312 17.2865C18.26 17.2865 18.7 17.2865 19.14 17.4652C19.7312 17.7127 20.1987 18.1802 20.4462 18.7715C20.625 19.2115 20.625 19.6515 20.625 20.3802V27.9427C20.625 28.6715 20.625 29.1115 20.4462 29.5515C20.1987 30.1427 19.7312 30.6102 19.14 30.8577C18.7 31.0365 18.26 31.0365 17.5312 31.0365ZM17.5312 19.349C17.1737 19.349 16.8025 19.349 16.7062 19.3765C16.6237 19.404 16.5687 19.4727 16.5275 19.5552C16.5 19.6377 16.5 20.009 16.5 20.3802V27.9427C16.5 28.3002 16.5 28.6715 16.5275 28.7677C16.555 28.8502 16.6237 28.919 16.7062 28.9465C16.885 29.0015 18.1637 29.0015 18.3562 28.9465C18.4387 28.919 18.4937 28.8502 18.535 28.7677C18.5625 28.6852 18.5625 28.314 18.5625 27.9427V20.3802C18.5625 20.0227 18.5625 19.6515 18.535 19.5552C18.5207 19.5138 18.4972 19.4762 18.4662 19.4453C18.4353 19.4143 18.3976 19.3908 18.3562 19.3765C18.2737 19.349 17.9025 19.349 17.5312 19.349ZM25.5475 30.8577C25.9875 31.0365 26.4275 31.0365 27.1562 31.0365C27.885 31.0365 28.325 31.0365 28.765 30.8577C29.3562 30.6102 29.8237 30.1427 30.0712 29.5515C30.25 29.1115 30.25 28.6715 30.25 27.9427V23.8177C30.25 23.089 30.25 22.649 30.0712 22.209C29.8237 21.6177 29.3562 21.1502 28.765 20.9027C28.325 20.724 27.885 20.724 27.1562 20.724C26.4275 20.724 25.9875 20.724 25.5475 20.9027C24.9562 21.1502 24.4887 21.6177 24.2412 22.209C24.0625 22.649 24.0625 23.089 24.0625 23.8177V27.9427C24.0625 28.6715 24.0625 29.1115 24.2412 29.5515C24.4887 30.1427 24.9562 30.6102 25.5475 30.8577ZM26.3312 22.814C26.4275 22.7865 26.7987 22.7865 27.1562 22.7865C27.5275 22.7865 27.8987 22.7865 27.9812 22.814C28.0637 22.8415 28.1325 22.9102 28.16 22.9927C28.1875 23.089 28.1875 23.4602 28.1875 23.8177V27.9427C28.1875 28.314 28.1875 28.6852 28.16 28.7677C28.1187 28.8502 28.0637 28.919 27.9812 28.9465C27.7887 29.0015 26.51 29.0015 26.3312 28.9465C26.2898 28.919 26.2323 28.8502 26.2095 28.7677C26.1822 28.6852 26.1822 28.314 26.1822 27.9427V23.8177C26.1822 23.4602 26.1822 23.089 26.2095 22.9927C26.2323 22.9102 26.2898 22.8415 26.3312 22.814Z"/>
</svg>
