<svg width="35" height="35" viewBox="0 0 35 35" fill="none" xmlns="http://www.w3.org/2000/svg">
<g clip-path="url(#clip0_250_268)">
<path d="M17.5 0.5V35.5M22.707 4.25C21.1355 5.07027 19.3348 5.50254 17.5 5.5C15.6652 5.50254 13.8645 5.07027 12.293 4.25M12.293 31.75C13.8657 30.9321 15.6656 30.5 17.5 30.5C19.3344 30.5 21.1343 30.9321 22.707 31.75M35 9.25L0 26.75M33.8525 15.0312C32.248 14.2606 30.9157 13.1264 29.9986 11.7501C29.0815 10.3739 28.6141 8.80749 28.6465 7.21875M1.14748 20.9688C2.75205 21.7394 4.08425 22.8736 5.00135 24.2499C5.91845 25.6261 6.38588 27.1925 6.35355 28.7812M0 9.25L35 26.75M1.14748 15.0312C2.75205 14.2606 4.08425 13.1264 5.00135 11.7501C5.91845 10.3739 6.38588 8.80749 6.35355 7.21875M33.8525 20.9688C32.248 21.7394 30.9157 22.8736 29.9986 24.2499C29.0815 25.6261 28.6141 27.1925 28.6465 28.7812" stroke="#1E3A8A" stroke-linecap="round" stroke-linejoin="round"/>
</g>
<defs>
<clipPath id="clip0_250_268">
<rect width="35" height="35" fill="white"/>
</clipPath>
</defs>
</svg>
