<svg width="24" height="24" viewBox="0 0 35 35" xmlns="http://www.w3.org/2000/svg" fill="currentColor" class="w-5 h-5 transition-colors duration-200">
<path fill="currentColor" fill-rule="evenodd" clip-rule="evenodd" d="M21.8458 10.2316C21.8458 10.2316 22.575 10.9608 23.3042 12.4191C23.3042 12.4191 25.6215 8.7733 27.6792 8.04414M14.576 2.94726C10.9317 2.79414 8.11708 3.21268 8.11708 3.21268C6.33937 3.34101 2.93271 4.3356 2.93271 10.1573C2.93271 15.9264 2.89625 23.0402 2.93271 25.8766C2.93271 27.6091 4.00604 31.6516 7.71896 31.8675C12.2325 32.13 20.3627 32.1868 24.0931 31.8675C25.0906 31.8106 28.4156 31.0275 28.8356 27.4108C29.2717 23.6629 29.1856 21.0598 29.1856 20.44" stroke="black" stroke-width="1.5" stroke-linecap="round" stroke-linejoin="round"/>
<path fill="currentColor" fill-rule="evenodd" clip-rule="evenodd" d="M10.1792 18.9816H16.0125M10.1792 24.8149H21.8459M32.0834 10.2316C32.0834 14.2581 28.8167 17.5233 24.7844 17.5233C23.8262 17.5242 22.8773 17.3363 21.9918 16.9703C21.1063 16.6043 20.3016 16.0674 19.6237 15.3902C18.9458 14.713 18.4081 13.9088 18.0412 13.0237C17.6743 12.1386 17.4854 11.1898 17.4854 10.2316C17.4854 6.20369 20.7536 2.93995 24.7844 2.93995C25.7426 2.93899 26.6915 3.12688 27.577 3.4929C28.4626 3.85891 29.2672 4.39586 29.9451 5.07304C30.623 5.75023 31.1607 6.55438 31.5276 7.43953C31.8945 8.32467 32.0834 9.27344 32.0834 10.2316Z" stroke="black" stroke-width="1.5" stroke-linecap="round" stroke-linejoin="round"/>
</svg>
