<svg width="46" height="46" viewBox="0 0 46 46" fill="none" xmlns="http://www.w3.org/2000/svg">
<path d="M23 42.1666C25.1841 42.167 27.3144 41.489 29.0965 40.2263C30.8785 38.9636 32.2244 37.1785 32.9481 35.1178C33.6717 33.0571 33.7375 30.8225 33.1362 28.7228C32.5349 26.6231 31.2962 24.762 29.5914 23.3967C29.3361 23.2031 29.1278 22.9543 28.9821 22.6688C28.8364 22.3834 28.7571 22.0688 28.75 21.7484V9.58331C28.75 8.05832 28.1442 6.59578 27.0659 5.51745C25.9876 4.43912 24.525 3.83331 23 3.83331C21.475 3.83331 20.0125 4.43912 18.9342 5.51745C17.8558 6.59578 17.25 8.05832 17.25 9.58331V21.7503C17.25 22.3981 16.9146 22.9923 16.4086 23.3986C14.7046 24.7641 13.4667 26.6251 12.8658 28.7244C12.265 30.8237 12.3309 33.0578 13.0545 35.1181C13.7781 37.1784 15.1236 38.9631 16.9051 40.2257C18.6867 41.4883 20.8164 42.1665 23 42.1666Z" stroke="#1E3A8A" stroke-width="1.2"/>
<path d="M27.7917 31.625C27.7917 32.8958 27.2869 34.1146 26.3883 35.0132C25.4896 35.9118 24.2709 36.4166 23 36.4166C21.7292 36.4166 20.5104 35.9118 19.6118 35.0132C18.7132 34.1146 18.2084 32.8958 18.2084 31.625C18.2084 30.3542 18.7132 29.1354 19.6118 28.2368C20.5104 27.3381 21.7292 26.8333 23 26.8333C24.2709 26.8333 25.4896 27.3381 26.3883 28.2368C27.2869 29.1354 27.7917 30.3542 27.7917 31.625Z" stroke="#1E3A8A" stroke-width="1.2"/>
<path d="M23 26.8333V9.58331" stroke="#1E3A8A" stroke-width="1.2" stroke-linecap="round"/>
</svg>
