<svg width="36" height="36" viewBox="0 0 36 36" fill="none" xmlns="http://www.w3.org/2000/svg">
<path d="M28.125 22.5C28.125 28.7135 24.2135 32.625 18 32.625C11.7865 32.625 7.875 28.7135 7.875 22.5C7.875 15.8323 15.1334 6.83086 17.3595 4.22719C17.4387 4.13468 17.537 4.06042 17.6476 4.0095C17.7582 3.95858 17.8786 3.93222 18.0004 3.93222C18.1221 3.93222 18.2425 3.95858 18.3531 4.0095C18.4637 4.06042 18.562 4.13468 18.6413 4.22719C20.8666 6.83086 28.125 15.8323 28.125 22.5Z" stroke="white" stroke-width="1.3" stroke-miterlimit="10"/>
<path d="M24.1875 23.0625C24.1875 24.4052 23.6541 25.6928 22.7047 26.6422C21.7553 27.5916 20.4677 28.125 19.125 28.125" stroke="white" stroke-linecap="round" stroke-linejoin="round"/>
</svg>
