<svg width="31" height="31" viewBox="0 0 31 31" fill="none" xmlns="http://www.w3.org/2000/svg">
<path fill="currentColor" fill-rule="evenodd" clip-rule="evenodd" d="M7.75 15.8229C7.75 15.4412 7.82517 15.0633 7.97122 14.7107C8.11728 14.3581 8.33135 14.0377 8.60122 13.7678C8.87109 13.498 9.19147 13.2839 9.54408 13.1379C9.89668 12.9918 10.2746 12.9166 10.6562 12.9166C11.0379 12.9166 11.4158 12.9918 11.7684 13.1379C12.121 13.2839 12.4414 13.498 12.7113 13.7678C12.9811 14.0377 13.1952 14.3581 13.3413 14.7107C13.4873 15.0633 13.5625 15.4412 13.5625 15.8229C13.5625 16.5937 13.2563 17.3329 12.7113 17.8779C12.1663 18.4229 11.427 18.7291 10.6562 18.7291C9.88546 18.7291 9.14625 18.4229 8.60122 17.8779C8.05619 17.3329 7.75 16.5937 7.75 15.8229ZM10.6562 14.8541C10.3993 14.8541 10.1529 14.9562 9.97124 15.1379C9.78956 15.3195 9.6875 15.5659 9.6875 15.8229C9.6875 16.0798 9.78956 16.3262 9.97124 16.5079C10.1529 16.6896 10.3993 16.7916 10.6562 16.7916C10.9132 16.7916 11.1596 16.6896 11.3413 16.5079C11.5229 16.3262 11.625 16.0798 11.625 15.8229C11.625 15.5659 11.5229 15.3195 11.3413 15.1379C11.1596 14.9562 10.9132 14.8541 10.6562 14.8541ZM14.8542 15.8229C14.8542 15.5659 14.9562 15.3195 15.1379 15.1379C15.3196 14.9562 15.566 14.8541 15.8229 14.8541H19.0521C19.309 14.8541 19.5554 14.9562 19.7371 15.1379C19.9188 15.3195 20.0208 15.5659 20.0208 15.8229C20.0208 16.0798 19.9188 16.3262 19.7371 16.5079C19.5554 16.6896 19.309 16.7916 19.0521 16.7916H15.8229C15.566 16.7916 15.3196 16.6896 15.1379 16.5079C14.9562 16.3262 14.8542 16.0798 14.8542 15.8229ZM7.75 10.0104C7.75 9.75345 7.85206 9.50704 8.03374 9.32537C8.21542 9.14369 8.46182 9.04163 8.71875 9.04163H19.0521C19.309 9.04163 19.5554 9.14369 19.7371 9.32537C19.9188 9.50704 20.0208 9.75345 20.0208 10.0104C20.0208 10.2673 19.9188 10.5137 19.7371 10.6954C19.5554 10.8771 19.309 10.9791 19.0521 10.9791H8.71875C8.46182 10.9791 8.21542 10.8771 8.03374 10.6954C7.85206 10.5137 7.75 10.2673 7.75 10.0104Z" fill="white"/>
<path fill="currentColor" fill-rule="evenodd" clip-rule="evenodd" d="M8.07292 3.875C6.95956 3.875 5.8918 4.31728 5.10454 5.10454C4.31728 5.8918 3.875 6.95956 3.875 8.07292V19.6979C3.875 20.8113 4.31728 21.879 5.10454 22.6663C5.8918 23.4536 6.95956 23.8958 8.07292 23.8958H19.6979C20.8113 23.8958 21.879 23.4536 22.6663 22.6663C23.4536 21.879 23.8958 20.8113 23.8958 19.6979V8.07292C23.8958 6.95956 23.4536 5.8918 22.6663 5.10454C21.879 4.31728 20.8113 3.875 19.6979 3.875H8.07292ZM5.8125 8.07292C5.8125 6.82517 6.82517 5.8125 8.07292 5.8125H19.6979C20.9457 5.8125 21.9583 6.82517 21.9583 8.07292V19.6979C21.9594 20.1811 21.8052 20.6517 21.5184 21.0406C21.2317 21.4294 20.8276 21.7158 20.3657 21.8576C20.1539 21.923 19.9313 21.9566 19.6979 21.9583H8.07292C7.47342 21.9583 6.89847 21.7202 6.47456 21.2963C6.05065 20.8724 5.8125 20.2974 5.8125 19.6979V8.07292Z" fill="white"/>
<path fill="currentColor" fill-rule="evenodd" clip-rule="evenodd" d="M11.3021 27.125C10.5969 27.1253 9.90304 26.9479 9.28449 26.6093C8.66593 26.2707 8.14265 25.7817 7.76294 25.1875H20.3438C21.6284 25.1875 22.8604 24.6771 23.7688 23.7688C24.6772 22.8604 25.1875 21.6283 25.1875 20.3437V7.76416C25.7817 8.14387 26.2707 8.66715 26.6094 9.28571C26.948 9.90426 27.1253 10.5982 27.125 11.3033V20.345C27.1247 22.1433 26.4101 23.8678 25.1384 25.1392C23.8667 26.4107 22.142 27.125 20.3438 27.125H11.3021Z" fill="white"/>
</svg>
