<svg width="40" height="40" viewBox="0 0 40 40" fill="none" xmlns="http://www.w3.org/2000/svg">
<path d="M26.6667 16.6667C26.6667 20.35 23.6834 23.3333 20 23.3333C16.3167 23.3333 13.3334 20.35 13.3334 16.6667C13.3334 12.9833 16.3167 10 20 10C23.6834 10 26.6667 12.9833 26.6667 16.6667Z" fill="#1E3B8A"/>
<path fill-rule="evenodd" clip-rule="evenodd" d="M20 40C31.05 40 40 31.05 40 20C40 8.95 31.05 0 20 0C8.95 0 0 8.95 0 20C0 31.05 8.95 40 20 40ZM30.45 35.0667C35.2167 31.75 38.3333 26.25 38.3333 20C38.3333 9.86667 30.1333 1.66667 20 1.66667C9.86667 1.66667 1.66667 9.86667 1.66667 20C1.66667 26.25 4.78333 31.75 9.55 35.0667C10.725 32.8667 14.5167 26.6667 20 26.6667C25.4833 26.6667 29.2667 32.8667 30.45 35.0667Z" fill="#1E3B8A"/>
</svg>
