<svg width="24" height="24" viewBox="0 0 39 39" xmlns="http://www.w3.org/2000/svg" fill="currentColor" class="w-5 h-5 transition-colors duration-200">
    <path fill-rule="evenodd" clip-rule="evenodd" d="M21.125 7.8V4.875H24.5335V8.40838C25.1051 8.6912 25.6522 9.02091 26.1693 9.39412L26.6699 9.08989L29.093 7.62892L30.4912 10.1605L32.7268 14.2145L34.125 16.7476L31.7047 18.2101L31.2042 18.5099C31.2322 18.8419 31.2462 19.1709 31.2462 19.5C31.2462 19.8291 31.2322 20.1581 31.2042 20.4901L31.7047 20.7899L34.125 22.2524L32.7268 24.7855L30.4912 28.8395L29.093 31.3711L26.6699 29.9101L26.1693 29.6059C25.6522 29.9791 25.1051 30.3088 24.5335 30.5916V34.125H21.125V31.2H21.7373V28.5529C23.3355 28.1229 24.7616 27.2498 25.883 26.0549L28.0683 27.377L30.3068 23.323L28.1173 22.0009C28.327 21.2038 28.4501 20.3673 28.4501 19.5C28.4501 18.6327 28.327 17.7962 28.1173 16.9991L30.3068 15.677L28.0683 11.623L25.883 12.9451C24.7616 11.7502 23.3355 10.8771 21.7373 10.4471V7.8H21.125ZM25.0936 19.5C25.0936 22.1402 23.4218 24.3717 21.125 25.0995V21.8814C21.8347 21.351 22.2972 20.4821 22.2972 19.5C22.2972 18.5179 21.8347 17.649 21.125 17.1186V13.9005C23.4218 14.6283 25.0936 16.8598 25.0936 19.5ZM6.5 11.3751C6.5 8.06043 11.4623 5.32518 17.8751 4.92543V8.18276C15.4984 8.35286 13.3511 8.89078 11.7611 9.68579C10.326 10.4033 9.75003 11.0842 9.75003 11.3751C9.75003 11.666 10.326 12.3469 11.7611 13.0644C13.3511 13.8594 15.4984 14.3974 17.8751 14.5674V17.8248C14.6512 17.6238 11.7939 16.8326 9.74949 15.6743L9.74896 19.5001H9.75003C9.75003 19.791 10.326 20.4719 11.7611 21.1894C13.3511 21.9844 15.4984 22.5223 17.8751 22.6924V25.9498C14.6506 25.7488 11.793 24.9573 9.74843 23.7986L9.74789 27.5083L9.75018 27.6297C9.83046 28.7439 13.1931 30.4777 17.8751 30.8166V34.0748C11.6166 33.6846 6.73971 31.07 6.50861 27.8634L6.5 27.6251V11.3751Z" />
</svg>